<?xml version="1.0" standalone="no"?><!DOCTYPE svg PUBLIC "-//W3C//DTD SVG 1.1//EN" "http://www.w3.org/Graphics/SVG/1.1/DTD/svg11.dtd"><svg t="1707827676176" class="icon" viewBox="0 0 1024 1024" version="1.1" xmlns="http://www.w3.org/2000/svg" p-id="9381" xmlns:xlink="http://www.w3.org/1999/xlink" width="200" height="200"><path d="M512 512m-450.56 0a450.56 450.56 0 1 0 901.12 0 450.56 450.56 0 1 0-901.12 0Z" fill="#131415" p-id="9382"></path><path d="M686.08 696.32a30.72 30.72 0 0 1 0 61.44h-348.16a30.72 30.72 0 0 1 0-61.44h348.16zM327.68 491.52a61.44 61.44 0 1 1 0 122.88 61.44 61.44 0 0 1 0-122.88z m184.32 0a61.44 61.44 0 1 1 0 122.88 61.44 61.44 0 0 1 0-122.88z m184.32 0a61.44 61.44 0 1 1 0 122.88 61.44 61.44 0 0 1 0-122.88z m-368.64-184.32a61.44 61.44 0 1 1 0 122.88 61.44 61.44 0 0 1 0-122.88z m184.32 0a61.44 61.44 0 1 1 0 122.88 61.44 61.44 0 0 1 0-122.88z m184.32 0a61.44 61.44 0 1 1 0 122.88 61.44 61.44 0 0 1 0-122.88z" fill="#FFFFFF" p-id="9383"></path></svg>